<svg width="17" height="16" viewBox="0 0 17 16" fill="none" xmlns="http://www.w3.org/2000/svg">
<mask id="mask0_580_771" style="mask-type:alpha" maskUnits="userSpaceOnUse" x="0" y="0" width="17" height="16">
<rect x="0.5" width="16" height="16" fill="#D9D9D9"/>
</mask>
<g mask="url(#mask0_580_771)">
<path d="M8.5 14C7.67778 14 6.90278 13.8417 6.175 13.525C5.44722 13.2083 4.81111 12.7778 4.26667 12.2333C3.72222 11.6889 3.29167 11.0528 2.975 10.325C2.65833 9.59722 2.5 8.82222 2.5 8C2.5 7.51111 2.55556 7.03611 2.66667 6.575C2.77778 6.11389 2.93889 5.68056 3.15 5.275C3.36111 4.86944 3.61389 4.49167 3.90833 4.14167C4.20278 3.79167 4.53333 3.47778 4.9 3.2L9.43333 7.73333L8.5 8.66667L4.9 5.06667C4.56667 5.46667 4.30556 5.91389 4.11667 6.40833C3.92778 6.90278 3.83333 7.43333 3.83333 8C3.83333 9.28889 4.28889 10.3889 5.2 11.3C6.11111 12.2111 7.21111 12.6667 8.5 12.6667C9.78889 12.6667 10.8889 12.2111 11.8 11.3C12.7111 10.3889 13.1667 9.28889 13.1667 8C13.1667 6.81111 12.7861 5.78611 12.025 4.925C11.2639 4.06389 10.3111 3.55556 9.16667 3.4V4.66667H7.83333V2H8.5C9.32222 2 10.0972 2.15833 10.825 2.475C11.5528 2.79167 12.1889 3.22222 12.7333 3.76667C13.2778 4.31111 13.7083 4.94722 14.025 5.675C14.3417 6.40278 14.5 7.17778 14.5 8C14.5 8.82222 14.3417 9.59722 14.025 10.325C13.7083 11.0528 13.2778 11.6889 12.7333 12.2333C12.1889 12.7778 11.5528 13.2083 10.825 13.525C10.0972 13.8417 9.32222 14 8.5 14ZM5.16667 8.66667C4.97778 8.66667 4.81944 8.60278 4.69167 8.475C4.56389 8.34722 4.5 8.18889 4.5 8C4.5 7.81111 4.56389 7.65278 4.69167 7.525C4.81944 7.39722 4.97778 7.33333 5.16667 7.33333C5.35556 7.33333 5.51389 7.39722 5.64167 7.525C5.76944 7.65278 5.83333 7.81111 5.83333 8C5.83333 8.18889 5.76944 8.34722 5.64167 8.475C5.51389 8.60278 5.35556 8.66667 5.16667 8.66667ZM8.5 12C8.31111 12 8.15278 11.9361 8.025 11.8083C7.89722 11.6806 7.83333 11.5222 7.83333 11.3333C7.83333 11.1444 7.89722 10.9861 8.025 10.8583C8.15278 10.7306 8.31111 10.6667 8.5 10.6667C8.68889 10.6667 8.84722 10.7306 8.975 10.8583C9.10278 10.9861 9.16667 11.1444 9.16667 11.3333C9.16667 11.5222 9.10278 11.6806 8.975 11.8083C8.84722 11.9361 8.68889 12 8.5 12ZM11.8333 8.66667C11.6444 8.66667 11.4861 8.60278 11.3583 8.475C11.2306 8.34722 11.1667 8.18889 11.1667 8C11.1667 7.81111 11.2306 7.65278 11.3583 7.525C11.4861 7.39722 11.6444 7.33333 11.8333 7.33333C12.0222 7.33333 12.1806 7.39722 12.3083 7.525C12.4361 7.65278 12.5 7.81111 12.5 8C12.5 8.18889 12.4361 8.34722 12.3083 8.475C12.1806 8.60278 12.0222 8.66667 11.8333 8.66667Z" fill="#2A2A2A"/>
</g>
</svg>
